<svg width="377" height="146" viewBox="0 0 377 146" fill="none" xmlns="http://www.w3.org/2000/svg">
<path d="M40.8154 69.3297H35.0837V13.8466L22.4545 50.2544H18.2772L5.8423 15.0085V69.3297H0.110596V0.387319H5.8423L20.4144 40.9588L35.0837 0.387319H40.8154V69.3297ZM77.5022 45.5098H57.2955C57.2955 55.58 57.5869 60.5183 59.8213 63.0359C60.89 64.2946 62.6386 65.2629 64.7759 65.2629C66.7188 65.2629 68.5646 64.6819 69.8275 63.3263C71.2847 61.7771 71.9648 59.3563 71.9648 56.3546H77.3079C77.3079 61.0993 76.2393 64.101 73.7134 66.7154C71.479 69.0393 68.3703 70.1044 64.7759 70.1044C60.9871 70.1044 58.0727 68.8456 55.8383 66.5217C52.6324 63.0358 51.8552 56.4515 51.8552 44.7351C51.8552 32.9219 52.5353 26.4344 55.8383 22.8517C57.9755 20.5278 60.89 19.269 64.6787 19.269C68.4675 19.269 71.3819 20.5278 73.5191 22.8517C76.8222 26.4344 77.5022 32.9219 77.5022 45.5098ZM72.0619 41.1524C71.9648 32.6315 71.479 28.5646 69.5361 26.3376C68.4675 25.0788 66.9131 24.1105 64.6787 24.1105C62.4443 24.1105 60.7928 25.0788 59.7242 26.3376C57.7812 28.5646 57.3927 32.6315 57.2955 41.1524H72.0619ZM75.4621 12.5878H70.5076L64.6787 3.67951L58.8499 12.5878H53.7982L62.25 0H67.1074L75.4621 12.5878ZM100.393 69.3297C96.7017 69.3297 93.3015 68.7488 90.5814 66.2312C88.2499 64.101 86.8898 61.0993 86.8898 56.161V0.387319H92.3301V56.161C92.3301 61.4866 94.953 64.4883 100.393 64.4883V69.3297ZM131.958 45.5098H111.751C111.751 55.58 112.043 60.5183 114.277 63.0359C115.346 64.2946 117.094 65.2629 119.232 65.2629C121.175 65.2629 123.02 64.6819 124.283 63.3263C125.741 61.7771 126.421 59.3563 126.421 56.3546H131.764C131.764 61.0993 130.695 64.101 128.169 66.7154C125.935 69.0393 122.826 70.1044 119.232 70.1044C115.443 70.1044 112.528 68.8456 110.294 66.5217C107.088 63.0358 106.311 56.4515 106.311 44.7351C106.311 32.9219 106.991 26.4344 110.294 22.8517C112.431 20.5278 115.346 19.269 119.135 19.269C122.923 19.269 125.838 20.5278 127.975 22.8517C131.278 26.4344 131.958 32.9219 131.958 45.5098ZM126.518 41.1524C126.421 32.6315 125.935 28.5646 123.992 26.3376C122.923 25.0788 121.369 24.1105 119.135 24.1105C116.9 24.1105 115.249 25.0788 114.18 26.3376C112.237 28.5646 111.848 32.6315 111.751 41.1524H126.518ZM128.461 0L121.272 12.5878H116.512L122.826 0H128.461ZM165.827 45.5098H145.62C145.62 55.58 145.912 60.5183 148.146 63.0359C149.215 64.2946 150.963 65.2629 153.1 65.2629C155.043 65.2629 156.889 64.6819 158.152 63.3263C159.609 61.7771 160.289 59.3563 160.289 56.3546H165.632C165.632 61.0993 164.564 64.101 162.038 66.7154C159.804 69.0393 156.695 70.1044 153.1 70.1044C149.312 70.1044 146.397 68.8456 144.163 66.5217C140.957 63.0358 140.18 56.4515 140.18 44.7351C140.18 32.9219 140.86 26.4344 144.163 22.8517C146.3 20.5278 149.215 19.269 153.003 19.269C156.792 19.269 159.706 20.5278 161.844 22.8517C165.147 26.4344 165.827 32.9219 165.827 45.5098ZM160.386 41.1524C160.289 32.6315 159.804 28.5646 157.861 26.3376C156.792 25.0788 155.238 24.1105 153.003 24.1105C150.769 24.1105 149.117 25.0788 148.049 26.3376C146.106 28.5646 145.717 32.6315 145.62 41.1524H160.386ZM199.113 56.7419C199.113 60.6151 197.558 64.0041 195.227 66.328C192.798 68.7488 189.592 70.1044 185.803 70.1044C182.015 70.1044 179.003 68.8456 176.769 66.6185C173.951 63.7137 172.883 60.131 172.883 55.9673H178.323C178.323 59.0658 179.003 61.3897 180.849 63.2295C182.209 64.5851 183.958 65.2629 185.803 65.2629C188.135 65.2629 189.981 64.4883 191.438 63.0359C192.895 61.5834 193.672 59.4532 193.672 56.9356C193.672 54.9022 193.284 53.1593 192.312 51.61C191.244 49.9639 189.689 48.6083 187.358 47.3495L181.14 43.9605C178.032 42.2176 175.797 39.9905 174.729 38.1507C173.757 36.311 173.369 34.3744 173.369 31.9537C173.369 28.1773 174.923 24.9819 177.254 22.658C179.489 20.431 182.598 19.269 186.095 19.269C189.786 19.269 192.701 20.3341 194.935 22.5612C197.364 24.982 198.53 28.4678 198.53 33.2124H193.09C193.09 29.5329 192.507 27.6932 190.952 26.0471C189.592 24.5946 187.844 24.1105 186.095 24.1105C183.958 24.1105 182.209 24.6915 180.946 25.9502C179.392 27.4027 178.809 29.7266 178.809 31.76C178.809 33.4061 179.1 34.8585 179.78 36.0205C180.46 37.2793 182.112 38.4412 184.346 39.7L190.467 43.1859C193.672 44.9288 195.81 46.7685 197.17 48.9956C198.53 51.2227 199.113 53.9339 199.113 56.7419Z" fill="white"/>
<path d="M35.2645 125.472C35.2645 133.606 34.0988 137.479 30.7958 140.868C27.8813 143.773 23.704 145.225 17.1951 145.225H0V76.2829H17.2922C23.704 76.2829 27.8813 77.6385 30.6986 80.5434C33.9045 83.7387 35.0702 87.2246 35.0702 94.6805C35.0702 99.6188 34.2931 103.395 31.0872 106.687C30.1157 107.656 28.95 108.527 27.4927 109.108C28.95 109.786 30.31 110.657 31.2815 111.626C34.4874 114.918 35.2645 119.081 35.2645 125.472ZM24.384 124.698C24.384 117.048 21.9553 113.949 16.1265 113.949H10.8805V135.446H16.1265C21.9553 135.446 24.384 132.734 24.384 124.698ZM24.1897 95.3583C24.1897 88.5802 21.9553 86.0627 16.3208 86.0627H10.8805V104.751H16.3208C21.9553 104.751 24.1897 101.943 24.1897 95.3583ZM74.9663 119.662C74.9663 128.28 74.5777 136.123 71.3718 140.578C68.3603 144.741 64.1829 146 59.2284 146C54.2739 146 50.0965 144.741 47.085 140.578C43.8791 136.123 43.4905 128.28 43.4905 119.662C43.4905 111.045 43.8791 103.201 47.085 98.7473C50.0965 94.5836 54.2739 93.4217 59.2284 93.4217C64.1829 93.4217 68.3603 94.5836 71.3718 98.7473C74.5777 103.201 74.9663 111.045 74.9663 119.662ZM64.6687 119.662C64.6687 112.11 64.5715 106.978 63.2115 104.654C62.3371 103.298 60.7828 102.524 59.2284 102.524C57.674 102.524 56.1197 103.298 55.2454 104.654C53.8853 106.978 53.7881 112.11 53.7881 119.662C53.7881 127.215 53.8853 132.444 55.2454 134.768C56.1197 136.123 57.674 136.801 59.2284 136.801C60.7828 136.801 62.3371 136.123 63.2115 134.768C64.5715 132.444 64.6687 127.215 64.6687 119.662ZM105.908 103.395H102.41C97.5531 103.395 93.8615 106.687 93.8615 112.207V145.225H83.5638V94.1963H93.4729V99.6187C94.5415 98.0695 96.193 96.617 97.9417 95.5519C100.176 94.1963 102.896 93.4217 105.908 93.4217V103.395ZM141.177 145.225H131.268V141.352C130.782 142.417 128.937 143.967 127.868 144.548C126.411 145.516 124.565 146 122.719 146C118.833 146 116.113 144.935 113.684 142.03C110.284 137.963 110.09 130.701 110.09 119.662C110.09 108.624 110.284 101.459 113.684 97.3917C116.016 94.5836 118.736 93.4217 122.719 93.4217C124.565 93.4217 126.411 93.9058 127.868 94.7773C128.937 95.3583 130.005 96.4234 130.88 97.4885V76.2829H141.177V145.225ZM130.88 130.701V108.721C130.88 106.494 130.394 105.041 129.325 103.976C128.354 103.008 127.285 102.524 125.828 102.524C124.274 102.524 122.913 103.298 122.039 104.557C120.679 106.3 120.388 109.979 120.388 119.662C120.388 129.345 120.679 133.122 122.039 134.865C122.913 136.123 124.274 136.801 125.828 136.801C127.285 136.801 128.354 136.414 129.325 135.446C130.394 134.38 130.88 132.928 130.88 130.701ZM181.221 122.664H160.043C160.043 128.474 160.335 132.831 161.598 134.768C162.375 135.93 163.735 136.801 165.581 136.801C167.232 136.801 168.592 136.123 169.467 134.865C170.341 133.799 170.729 131.96 170.729 130.217H181.027C180.833 134.768 179.764 138.641 176.655 141.933C173.935 144.838 170.341 146 165.581 146C161.015 146 157.615 145.032 154.506 141.836C150.231 137.382 149.746 128.958 149.746 119.662C149.746 110.464 150.231 101.943 154.506 97.4885C157.615 94.2931 161.306 93.4217 165.483 93.4217C169.758 93.4217 173.255 94.2931 176.461 97.4885C180.541 101.555 181.221 110.464 181.221 122.664ZM170.924 115.111C170.924 109.108 170.535 106.106 169.467 104.557C168.592 103.298 167.426 102.524 165.483 102.524C163.541 102.524 162.375 103.298 161.5 104.557C160.432 106.106 160.043 109.108 160.043 115.111H170.924ZM206.533 145.225C201.773 145.225 197.79 144.741 194.39 142.127C191.184 139.706 189.241 135.833 189.241 129.733V76.2829H199.539V129.152C199.539 133.703 201.773 136.027 206.533 136.027V145.225ZM242.201 145.225H232.486V140.868C231.612 142.127 230.543 143.482 229.377 144.257C227.823 145.322 226.172 146 223.549 146C219.274 146 216.554 144.741 213.931 141.739C211.891 139.319 210.822 135.446 210.822 130.314C210.822 125.666 212.474 121.599 215.582 118.888C218.108 116.661 221.411 115.402 227.337 115.402H231.903V108.333C231.903 104.557 230.155 102.427 226.949 102.427C225.394 102.427 224.326 103.008 223.549 103.879C222.48 105.041 221.994 106.494 221.994 108.624H211.697C211.697 104.557 212.862 100.781 216.068 97.5853C218.497 95.1646 222.674 93.4217 226.852 93.4217C231.126 93.4217 235.109 94.4868 237.732 97.198C240.452 99.9092 242.201 103.686 242.201 109.205V145.225ZM231.903 130.217V122.664H228.503C226.269 122.664 224.617 122.858 223.16 124.213C221.897 125.375 221.12 127.893 221.12 129.926C221.12 134.477 222.966 136.995 226.463 136.995C229.572 136.995 231.903 134.38 231.903 130.217ZM262.352 145.225H252.054V95.5519H262.352V145.225ZM262.837 87.7087H251.471V76.3797H262.837V87.7087ZM301.594 130.507C301.594 135.542 299.651 139.222 297.028 141.836C293.92 144.935 290.228 146 285.857 146C281.485 146 277.21 144.548 274.587 141.836C271.576 138.738 270.021 135.155 270.021 130.314H280.222C280.222 132.347 280.805 133.993 281.971 135.155C282.942 136.22 284.496 136.704 285.857 136.704C287.508 136.704 288.674 136.317 289.84 135.252C290.811 134.38 291.297 132.831 291.297 131.185C291.297 129.733 291.005 128.571 290.228 127.409C289.451 126.247 288.091 125.279 286.245 124.504L279.445 121.502C275.947 119.953 273.422 117.919 271.964 115.596C270.799 113.756 270.313 111.432 270.313 108.624C270.313 103.686 272.062 100.49 274.782 97.6822C277.599 94.8741 281.582 93.4217 285.857 93.4217C290.131 93.4217 294.017 94.7773 296.64 97.2948C299.36 99.9092 301.012 103.492 301.012 108.624H290.908C290.908 106.397 290.422 105.041 289.451 103.976C288.48 102.911 287.217 102.427 285.857 102.427C284.302 102.427 282.942 103.008 282.068 103.879C281.096 104.848 280.611 106.203 280.611 107.752C280.611 109.011 280.805 109.883 281.388 110.754C282.068 111.819 283.428 112.884 285.177 113.659L291.977 116.564C295.474 118.113 297.806 119.759 299.457 122.18C300.817 124.117 301.594 127.021 301.594 130.507ZM339.37 122.664H318.192C318.192 128.474 318.484 132.831 319.746 134.768C320.524 135.93 321.884 136.801 323.73 136.801C325.381 136.801 326.741 136.123 327.615 134.865C328.49 133.799 328.878 131.96 328.878 130.217H339.176C338.982 134.768 337.913 138.641 334.804 141.933C332.084 144.838 328.49 146 323.73 146C319.164 146 315.763 145.032 312.655 141.836C308.38 137.382 307.894 128.958 307.894 119.662C307.894 110.464 308.38 101.943 312.655 97.4885C315.763 94.2931 319.455 93.4217 323.632 93.4217C327.907 93.4217 331.404 94.2931 334.61 97.4885C338.69 101.555 339.37 110.464 339.37 122.664ZM329.073 115.111C329.073 109.108 328.684 106.106 327.615 104.557C326.741 103.298 325.575 102.524 323.632 102.524C321.689 102.524 320.524 103.298 319.649 104.557C318.581 106.106 318.192 109.108 318.192 115.111H329.073ZM376.828 130.507C376.828 135.542 374.885 139.222 372.262 141.836C369.153 144.935 365.462 146 361.09 146C356.718 146 352.444 144.548 349.821 141.836C346.809 138.738 345.255 135.155 345.255 130.314H355.455C355.455 132.347 356.038 133.993 357.204 135.155C358.176 136.22 359.73 136.704 361.09 136.704C362.741 136.704 363.907 136.317 365.073 135.252C366.044 134.38 366.53 132.831 366.53 131.185C366.53 129.733 366.239 128.571 365.462 127.409C364.684 126.247 363.324 125.279 361.479 124.504L354.678 121.502C351.181 119.953 348.655 117.919 347.198 115.596C346.032 113.756 345.546 111.432 345.546 108.624C345.546 103.686 347.295 100.49 350.015 97.6822C352.832 94.8741 356.815 93.4217 361.09 93.4217C365.364 93.4217 369.25 94.7773 371.873 97.2948C374.593 99.9092 376.245 103.492 376.245 108.624H366.142C366.142 106.397 365.656 105.041 364.684 103.976C363.713 102.911 362.45 102.427 361.09 102.427C359.536 102.427 358.176 103.008 357.301 103.879C356.33 104.848 355.844 106.203 355.844 107.752C355.844 109.011 356.038 109.883 356.621 110.754C357.301 111.819 358.661 112.884 360.41 113.659L367.21 116.564C370.708 118.113 373.039 119.759 374.691 122.18C376.051 124.117 376.828 127.021 376.828 130.507Z" fill="white"/>
</svg>
