<svg width="246" height="48" viewBox="0 0 246 48" fill="none" xmlns="http://www.w3.org/2000/svg">
<path d="M19.52 39H17.16V16.08L11.96 31.12H10.24L5.12 16.56V39H2.76V10.52H5.12L11.12 27.28L17.16 10.52H19.52V39ZM34.6256 29.16H26.3056C26.3056 33.32 26.4256 35.36 27.3456 36.4C27.7856 36.92 28.5056 37.32 29.3856 37.32C30.1856 37.32 30.9456 37.08 31.4656 36.52C32.0656 35.88 32.3456 34.88 32.3456 33.64H34.5456C34.5456 35.6 34.1056 36.84 33.0656 37.92C32.1456 38.88 30.8656 39.32 29.3856 39.32C27.8256 39.32 26.6256 38.8 25.7056 37.84C24.3856 36.4 24.0656 33.68 24.0656 28.84C24.0656 23.96 24.3456 21.28 25.7056 19.8C26.5856 18.84 27.7856 18.32 29.3456 18.32C30.9056 18.32 32.1056 18.84 32.9856 19.8C34.3456 21.28 34.6256 23.96 34.6256 29.16ZM32.3856 27.36C32.3456 23.84 32.1456 22.16 31.3456 21.24C30.9056 20.72 30.2656 20.32 29.3456 20.32C28.4256 20.32 27.7456 20.72 27.3056 21.24C26.5056 22.16 26.3456 23.84 26.3056 27.36H32.3856ZM33.7856 15.56H31.7456L29.3456 11.88L26.9456 15.56H24.8656L28.3456 10.36H30.3456L33.7856 15.56ZM44.0509 39C42.5309 39 41.1309 38.76 40.0109 37.72C39.0509 36.84 38.4909 35.6 38.4909 33.56V10.52H40.7309V33.56C40.7309 35.76 41.8109 37 44.0509 37V39ZM57.0475 29.16H48.7275C48.7275 33.32 48.8475 35.36 49.7675 36.4C50.2075 36.92 50.9275 37.32 51.8075 37.32C52.6075 37.32 53.3675 37.08 53.8875 36.52C54.4875 35.88 54.7675 34.88 54.7675 33.64H56.9675C56.9675 35.6 56.5275 36.84 55.4875 37.92C54.5675 38.88 53.2875 39.32 51.8075 39.32C50.2475 39.32 49.0475 38.8 48.1275 37.84C46.8075 36.4 46.4875 33.68 46.4875 28.84C46.4875 23.96 46.7675 21.28 48.1275 19.8C49.0075 18.84 50.2075 18.32 51.7675 18.32C53.3275 18.32 54.5275 18.84 55.4075 19.8C56.7675 21.28 57.0475 23.96 57.0475 29.16ZM54.8075 27.36C54.7675 23.84 54.5675 22.16 53.7675 21.24C53.3275 20.72 52.6875 20.32 51.7675 20.32C50.8475 20.32 50.1675 20.72 49.7275 21.24C48.9275 22.16 48.7675 23.84 48.7275 27.36H54.8075ZM55.6075 10.36L52.6475 15.56H50.6875L53.2875 10.36H55.6075ZM70.9928 29.16H62.6728C62.6728 33.32 62.7928 35.36 63.7128 36.4C64.1528 36.92 64.8728 37.32 65.7528 37.32C66.5528 37.32 67.3128 37.08 67.8328 36.52C68.4328 35.88 68.7128 34.88 68.7128 33.64H70.9128C70.9128 35.6 70.4728 36.84 69.4328 37.92C68.5128 38.88 67.2328 39.32 65.7528 39.32C64.1928 39.32 62.9928 38.8 62.0728 37.84C60.7528 36.4 60.4328 33.68 60.4328 28.84C60.4328 23.96 60.7128 21.28 62.0728 19.8C62.9528 18.84 64.1528 18.32 65.7128 18.32C67.2728 18.32 68.4728 18.84 69.3528 19.8C70.7128 21.28 70.9928 23.96 70.9928 29.16ZM68.7528 27.36C68.7128 23.84 68.5128 22.16 67.7128 21.24C67.2728 20.72 66.6328 20.32 65.7128 20.32C64.7928 20.32 64.1128 20.72 63.6728 21.24C62.8728 22.16 62.7128 23.84 62.6728 27.36H68.7528ZM84.6981 33.8C84.6981 35.4 84.0581 36.8 83.0981 37.76C82.0981 38.76 80.7781 39.32 79.2181 39.32C77.6581 39.32 76.4181 38.8 75.4981 37.88C74.3381 36.68 73.8981 35.2 73.8981 33.48H76.1381C76.1381 34.76 76.4181 35.72 77.1781 36.48C77.7381 37.04 78.4581 37.32 79.2181 37.32C80.1781 37.32 80.9381 37 81.5381 36.4C82.1381 35.8 82.4581 34.92 82.4581 33.88C82.4581 33.04 82.2981 32.32 81.8981 31.68C81.4581 31 80.8181 30.44 79.8581 29.92L77.2981 28.52C76.0181 27.8 75.0981 26.88 74.6581 26.12C74.2581 25.36 74.0981 24.56 74.0981 23.56C74.0981 22 74.7381 20.68 75.6981 19.72C76.6181 18.8 77.8981 18.32 79.3381 18.32C80.8581 18.32 82.0581 18.76 82.9781 19.68C83.9781 20.68 84.4581 22.12 84.4581 24.08H82.2181C82.2181 22.56 81.9781 21.8 81.3381 21.12C80.7781 20.52 80.0581 20.32 79.3381 20.32C78.4581 20.32 77.7381 20.56 77.2181 21.08C76.5781 21.68 76.3381 22.64 76.3381 23.48C76.3381 24.16 76.4581 24.76 76.7381 25.24C77.0181 25.76 77.6981 26.24 78.6181 26.76L81.1381 28.2C82.4581 28.92 83.3381 29.68 83.8981 30.6C84.4581 31.52 84.6981 32.64 84.6981 33.8Z" fill="white"/>
<path d="M103.92 30.84C103.92 34.2 103.44 35.8 102.08 37.2C100.88 38.4 99.16 39 96.48 39H89.4V10.52H96.52C99.16 10.52 100.88 11.08 102.04 12.28C103.36 13.6 103.84 15.04 103.84 18.12C103.84 20.16 103.52 21.72 102.2 23.08C101.8 23.48 101.32 23.84 100.72 24.08C101.32 24.36 101.88 24.72 102.28 25.12C103.6 26.48 103.92 28.2 103.92 30.84ZM99.44 30.52C99.44 27.36 98.44 26.08 96.04 26.08H93.88V34.96H96.04C98.44 34.96 99.44 33.84 99.44 30.52ZM99.36 18.4C99.36 15.6 98.44 14.56 96.12 14.56H93.88V22.28H96.12C98.44 22.28 99.36 21.12 99.36 18.4ZM120.267 28.44C120.267 32 120.107 35.24 118.787 37.08C117.547 38.8 115.827 39.32 113.787 39.32C111.747 39.32 110.027 38.8 108.787 37.08C107.467 35.24 107.307 32 107.307 28.44C107.307 24.88 107.467 21.64 108.787 19.8C110.027 18.08 111.747 17.6 113.787 17.6C115.827 17.6 117.547 18.08 118.787 19.8C120.107 21.64 120.267 24.88 120.267 28.44ZM116.027 28.44C116.027 25.32 115.987 23.2 115.427 22.24C115.067 21.68 114.427 21.36 113.787 21.36C113.147 21.36 112.507 21.68 112.147 22.24C111.587 23.2 111.547 25.32 111.547 28.44C111.547 31.56 111.587 33.72 112.147 34.68C112.507 35.24 113.147 35.52 113.787 35.52C114.427 35.52 115.067 35.24 115.427 34.68C115.987 33.72 116.027 31.56 116.027 28.44ZM133.007 21.72H131.567C129.567 21.72 128.047 23.08 128.047 25.36V39H123.807V17.92H127.887V20.16C128.327 19.52 129.007 18.92 129.727 18.48C130.647 17.92 131.767 17.6 133.007 17.6V21.72ZM147.529 39H143.449V37.4C143.249 37.84 142.489 38.48 142.049 38.72C141.449 39.12 140.689 39.32 139.929 39.32C138.329 39.32 137.209 38.88 136.209 37.68C134.809 36 134.729 33 134.729 28.44C134.729 23.88 134.809 20.92 136.209 19.24C137.169 18.08 138.289 17.6 139.929 17.6C140.689 17.6 141.449 17.8 142.049 18.16C142.489 18.4 142.929 18.84 143.289 19.28V10.52H147.529V39ZM143.289 33V23.92C143.289 23 143.089 22.4 142.649 21.96C142.249 21.56 141.809 21.36 141.209 21.36C140.569 21.36 140.009 21.68 139.649 22.2C139.089 22.92 138.969 24.44 138.969 28.44C138.969 32.44 139.089 34 139.649 34.72C140.009 35.24 140.569 35.52 141.209 35.52C141.809 35.52 142.249 35.36 142.649 34.96C143.089 34.52 143.289 33.92 143.289 33ZM164.017 29.68H155.297C155.297 32.08 155.417 33.88 155.937 34.68C156.257 35.16 156.817 35.52 157.577 35.52C158.257 35.52 158.817 35.24 159.177 34.72C159.537 34.28 159.697 33.52 159.697 32.8H163.937C163.857 34.68 163.417 36.28 162.137 37.64C161.017 38.84 159.537 39.32 157.577 39.32C155.697 39.32 154.297 38.92 153.017 37.6C151.257 35.76 151.057 32.28 151.057 28.44C151.057 24.64 151.257 21.12 153.017 19.28C154.297 17.96 155.817 17.6 157.537 17.6C159.297 17.6 160.737 17.96 162.057 19.28C163.737 20.96 164.017 24.64 164.017 29.68ZM159.777 26.56C159.777 24.08 159.617 22.84 159.177 22.2C158.817 21.68 158.337 21.36 157.537 21.36C156.737 21.36 156.257 21.68 155.897 22.2C155.457 22.84 155.297 24.08 155.297 26.56H159.777ZM174.439 39C172.479 39 170.839 38.8 169.439 37.72C168.119 36.72 167.319 35.12 167.319 32.6V10.52H171.559V32.36C171.559 34.24 172.479 35.2 174.439 35.2V39ZM189.125 39H185.125V37.2C184.765 37.72 184.325 38.28 183.845 38.6C183.205 39.04 182.525 39.32 181.445 39.32C179.685 39.32 178.565 38.8 177.485 37.56C176.645 36.56 176.205 34.96 176.205 32.84C176.205 30.92 176.885 29.24 178.165 28.12C179.205 27.2 180.565 26.68 183.005 26.68H184.885V23.76C184.885 22.2 184.165 21.32 182.845 21.32C182.205 21.32 181.765 21.56 181.445 21.92C181.005 22.4 180.805 23 180.805 23.88H176.565C176.565 22.2 177.045 20.64 178.365 19.32C179.365 18.32 181.085 17.6 182.805 17.6C184.565 17.6 186.205 18.04 187.285 19.16C188.405 20.28 189.125 21.84 189.125 24.12V39ZM184.885 32.8V29.68H183.485C182.565 29.68 181.885 29.76 181.285 30.32C180.765 30.8 180.445 31.84 180.445 32.68C180.445 34.56 181.205 35.6 182.645 35.6C183.925 35.6 184.885 34.52 184.885 32.8ZM197.422 39H193.182V18.48H197.422V39ZM197.622 15.24H192.942V10.56H197.622V15.24ZM213.58 32.92C213.58 35 212.78 36.52 211.7 37.6C210.42 38.88 208.9 39.32 207.1 39.32C205.3 39.32 203.54 38.72 202.46 37.6C201.22 36.32 200.58 34.84 200.58 32.84H204.78C204.78 33.68 205.02 34.36 205.5 34.84C205.9 35.28 206.54 35.48 207.1 35.48C207.78 35.48 208.26 35.32 208.74 34.88C209.14 34.52 209.34 33.88 209.34 33.2C209.34 32.6 209.22 32.12 208.9 31.64C208.58 31.16 208.02 30.76 207.26 30.44L204.46 29.2C203.02 28.56 201.98 27.72 201.38 26.76C200.9 26 200.7 25.04 200.7 23.88C200.7 21.84 201.42 20.52 202.54 19.36C203.7 18.2 205.34 17.6 207.1 17.6C208.86 17.6 210.46 18.16 211.54 19.2C212.66 20.28 213.34 21.76 213.34 23.88H209.18C209.18 22.96 208.98 22.4 208.58 21.96C208.18 21.52 207.66 21.32 207.1 21.32C206.46 21.32 205.9 21.56 205.54 21.92C205.14 22.32 204.94 22.88 204.94 23.52C204.94 24.04 205.02 24.4 205.26 24.76C205.54 25.2 206.1 25.64 206.82 25.96L209.62 27.16C211.06 27.8 212.02 28.48 212.7 29.48C213.26 30.28 213.58 31.48 213.58 32.92ZM229.134 29.68H220.414C220.414 32.08 220.534 33.88 221.054 34.68C221.374 35.16 221.934 35.52 222.694 35.52C223.374 35.52 223.934 35.24 224.294 34.72C224.654 34.28 224.814 33.52 224.814 32.8H229.054C228.974 34.68 228.534 36.28 227.254 37.64C226.134 38.84 224.654 39.32 222.694 39.32C220.814 39.32 219.414 38.92 218.134 37.6C216.374 35.76 216.174 32.28 216.174 28.44C216.174 24.64 216.374 21.12 218.134 19.28C219.414 17.96 220.934 17.6 222.654 17.6C224.414 17.6 225.854 17.96 227.174 19.28C228.854 20.96 229.134 24.64 229.134 29.68ZM224.894 26.56C224.894 24.08 224.734 22.84 224.294 22.2C223.934 21.68 223.454 21.36 222.654 21.36C221.854 21.36 221.374 21.68 221.014 22.2C220.574 22.84 220.414 24.08 220.414 26.56H224.894ZM244.557 32.92C244.557 35 243.757 36.52 242.677 37.6C241.397 38.88 239.877 39.32 238.077 39.32C236.277 39.32 234.517 38.72 233.437 37.6C232.197 36.32 231.557 34.84 231.557 32.84H235.757C235.757 33.68 235.997 34.36 236.477 34.84C236.877 35.28 237.517 35.48 238.077 35.48C238.757 35.48 239.237 35.32 239.717 34.88C240.117 34.52 240.317 33.88 240.317 33.2C240.317 32.6 240.197 32.12 239.877 31.64C239.557 31.16 238.997 30.76 238.237 30.44L235.437 29.2C233.997 28.56 232.957 27.72 232.357 26.76C231.877 26 231.677 25.04 231.677 23.88C231.677 21.84 232.397 20.52 233.517 19.36C234.677 18.2 236.317 17.6 238.077 17.6C239.837 17.6 241.437 18.16 242.517 19.2C243.637 20.28 244.317 21.76 244.317 23.88H240.157C240.157 22.96 239.957 22.4 239.557 21.96C239.157 21.52 238.637 21.32 238.077 21.32C237.437 21.32 236.877 21.56 236.517 21.92C236.117 22.32 235.917 22.88 235.917 23.52C235.917 24.04 235.997 24.4 236.237 24.76C236.517 25.2 237.077 25.64 237.797 25.96L240.597 27.16C242.037 27.8 242.997 28.48 243.677 29.48C244.237 30.28 244.557 31.48 244.557 32.92Z" fill="white"/>
</svg>
