<svg width="173" height="68" viewBox="0 0 173 68" fill="none" xmlns="http://www.w3.org/2000/svg">
<path d="M18.7382 31.829H16.1068V6.3569L10.3088 23.0716H8.39098L2.68218 6.89035V31.829H0.0507812V0.177816H2.68218L9.37218 18.804L16.1068 0.177816H18.7382V31.829ZM35.5809 20.8933H26.3041C26.3041 25.5165 26.4379 27.7837 27.4637 28.9395C27.9543 29.5174 28.7571 29.9619 29.7383 29.9619C30.6303 29.9619 31.4777 29.6952 32.0575 29.0728C32.7265 28.3616 33.0387 27.2502 33.0387 25.8722H35.4917C35.4917 28.0504 35.0011 29.4285 33.8415 30.6287C32.8157 31.6956 31.3885 32.1846 29.7383 32.1846C27.9989 32.1846 26.6609 31.6067 25.6351 30.5398C24.1633 28.9395 23.8065 25.9166 23.8065 20.5377C23.8065 15.1143 24.1187 12.1359 25.6351 10.4911C26.6163 9.42422 27.9543 8.84632 29.6937 8.84632C31.4331 8.84632 32.7711 9.42422 33.7523 10.4911C35.2687 12.1359 35.5809 15.1143 35.5809 20.8933ZM33.0833 18.8929C33.0387 14.981 32.8157 13.1139 31.9237 12.0915C31.4331 11.5136 30.7195 11.069 29.6937 11.069C28.6679 11.069 27.9097 11.5136 27.4191 12.0915C26.5271 13.1139 26.3487 14.981 26.3041 18.8929H33.0833ZM34.6443 5.77901H32.3697L29.6937 1.68925L27.0177 5.77901H24.6985L28.5787 0H30.8087L34.6443 5.77901ZM46.0901 31.829C44.3953 31.829 42.8343 31.5623 41.5855 30.4065C40.5151 29.4285 39.8907 28.0504 39.8907 25.7833V0.177816H42.3883V25.7833C42.3883 28.2282 43.5925 29.6063 46.0901 29.6063V31.829ZM60.5813 20.8933H51.3045C51.3045 25.5165 51.4383 27.7837 52.4641 28.9395C52.9547 29.5174 53.7575 29.9619 54.7387 29.9619C55.6307 29.9619 56.4781 29.6952 57.0579 29.0728C57.7269 28.3616 58.0391 27.2502 58.0391 25.8722H60.4921C60.4921 28.0504 60.0015 29.4285 58.8419 30.6287C57.8161 31.6956 56.3889 32.1846 54.7387 32.1846C52.9993 32.1846 51.6613 31.6067 50.6355 30.5398C49.1637 28.9395 48.8069 25.9166 48.8069 20.5377C48.8069 15.1143 49.1191 12.1359 50.6355 10.4911C51.6167 9.42422 52.9547 8.84632 54.6941 8.84632C56.4335 8.84632 57.7715 9.42422 58.7527 10.4911C60.2691 12.1359 60.5813 15.1143 60.5813 20.8933ZM58.0837 18.8929C58.0391 14.981 57.8161 13.1139 56.9241 12.0915C56.4335 11.5136 55.7199 11.069 54.6941 11.069C53.6683 11.069 52.9101 11.5136 52.4195 12.0915C51.5275 13.1139 51.3491 14.981 51.3045 18.8929H58.0837ZM58.9757 0L55.6753 5.77901H53.4899L56.3889 0H58.9757ZM76.1303 20.8933H66.8535C66.8535 25.5165 66.9873 27.7837 68.0131 28.9395C68.5037 29.5174 69.3065 29.9619 70.2877 29.9619C71.1797 29.9619 72.0271 29.6952 72.6069 29.0728C73.2759 28.3616 73.5881 27.2502 73.5881 25.8722H76.0411C76.0411 28.0504 75.5505 29.4285 74.3909 30.6287C73.3651 31.6956 71.9379 32.1846 70.2877 32.1846C68.5483 32.1846 67.2103 31.6067 66.1845 30.5398C64.7127 28.9395 64.3559 25.9166 64.3559 20.5377C64.3559 15.1143 64.6681 12.1359 66.1845 10.4911C67.1657 9.42422 68.5037 8.84632 70.2431 8.84632C71.9825 8.84632 73.3205 9.42422 74.3017 10.4911C75.8181 12.1359 76.1303 15.1143 76.1303 20.8933ZM73.6327 18.8929C73.5881 14.981 73.3651 13.1139 72.4731 12.0915C71.9825 11.5136 71.2689 11.069 70.2431 11.069C69.2173 11.069 68.4591 11.5136 67.9685 12.0915C67.0765 13.1139 66.8981 14.981 66.8535 18.8929H73.6327ZM91.4117 26.05C91.4117 27.8281 90.6981 29.384 89.6277 30.4509C88.5127 31.5623 87.0409 32.1846 85.3015 32.1846C83.5621 32.1846 82.1795 31.6067 81.1537 30.5843C79.8603 29.2507 79.3697 27.6059 79.3697 25.6943H81.8673C81.8673 27.1169 82.1795 28.1838 83.0269 29.0284C83.6513 29.6507 84.4541 29.9619 85.3015 29.9619C86.3719 29.9619 87.2193 29.6063 87.8883 28.9395C88.5573 28.2727 88.9141 27.2947 88.9141 26.1389C88.9141 25.2053 88.7357 24.4052 88.2897 23.6939C87.7991 22.9382 87.0855 22.3158 86.0151 21.7379L83.1607 20.1821C81.7335 19.3819 80.7077 18.3595 80.2171 17.5148C79.7711 16.6702 79.5927 15.7811 79.5927 14.6698C79.5927 12.9361 80.3063 11.4691 81.3767 10.4022C82.4025 9.37977 83.8297 8.84632 85.4353 8.84632C87.1301 8.84632 88.4681 9.33532 89.4939 10.3578C90.6089 11.4691 91.1441 13.0694 91.1441 15.2477H88.6465C88.6465 13.5584 88.3789 12.7138 87.6653 11.9581C87.0409 11.2913 86.2381 11.069 85.4353 11.069C84.4541 11.069 83.6513 11.3357 83.0715 11.9136C82.3579 12.5804 82.0903 13.6473 82.0903 14.5809C82.0903 15.3366 82.2241 16.0034 82.5363 16.5368C82.8485 17.1147 83.6067 17.6482 84.6325 18.2261L87.4423 19.8264C88.9141 20.6266 89.8953 21.4712 90.5197 22.4937C91.1441 23.5161 91.4117 24.7608 91.4117 26.05Z" fill="white"/>
<path d="M16.1898 57.6037C16.1898 61.3378 15.6546 63.116 14.1382 64.6719C12.8002 66.0055 10.8824 66.6723 7.8942 66.6723H0V35.0211H7.93879C10.8824 35.0211 12.8002 35.6435 14.0936 36.9771C15.5654 38.4441 16.1006 40.0444 16.1006 43.4674C16.1006 45.7345 15.7438 47.4682 14.272 48.9797C13.826 49.4242 13.2908 49.8243 12.6218 50.091C13.2908 50.4022 13.9152 50.8023 14.3612 51.2468C15.833 52.7582 16.1898 54.6698 16.1898 57.6037ZM11.1946 57.2481C11.1946 53.7362 10.0796 52.3137 7.4036 52.3137H4.99519V62.1825H7.4036C10.0796 62.1825 11.1946 60.9378 11.1946 57.2481ZM11.1054 43.7786C11.1054 40.6668 10.0796 39.511 7.4928 39.511H4.99519V48.0906H7.4928C10.0796 48.0906 11.1054 46.8014 11.1054 43.7786ZM34.4167 54.9365C34.4167 58.8929 34.2383 62.4936 32.7665 64.5385C31.3839 66.45 29.4661 67.0279 27.1915 67.0279C24.9169 67.0279 22.9991 66.45 21.6165 64.5385C20.1447 62.4936 19.9663 58.8929 19.9663 54.9365C19.9663 50.9801 20.1447 47.3793 21.6165 45.3344C22.9991 43.4229 24.9169 42.8895 27.1915 42.8895C29.4661 42.8895 31.3839 43.4229 32.7665 45.3344C34.2383 47.3793 34.4167 50.9801 34.4167 54.9365ZM29.6891 54.9365C29.6891 51.4691 29.6445 49.113 29.0201 48.0461C28.6187 47.4238 27.9051 47.0681 27.1915 47.0681C26.4779 47.0681 25.7643 47.4238 25.3629 48.0461C24.7385 49.113 24.6939 51.4691 24.6939 54.9365C24.6939 58.4039 24.7385 60.8044 25.3629 61.8713C25.7643 62.4936 26.4779 62.8048 27.1915 62.8048C27.9051 62.8048 28.6187 62.4936 29.0201 61.8713C29.6445 60.8044 29.6891 58.4039 29.6891 54.9365ZM48.6218 47.4682H47.0162C44.7862 47.4682 43.0914 48.9797 43.0914 51.5135V66.6723H38.3638V43.2451H42.913V45.7345C43.4036 45.0233 44.1618 44.3565 44.9646 43.8675C45.9904 43.2451 47.2392 42.8895 48.6218 42.8895V47.4682ZM64.8138 66.6723H60.2646V64.8942C60.0416 65.3831 59.1942 66.0944 58.7036 66.3611C58.0346 66.8057 57.1872 67.0279 56.3398 67.0279C54.5558 67.0279 53.307 66.5389 52.192 65.2053C50.631 63.3383 50.5418 60.0042 50.5418 54.9365C50.5418 49.8687 50.631 46.5792 52.192 44.7121C53.2624 43.4229 54.5112 42.8895 56.3398 42.8895C57.1872 42.8895 58.0346 43.1118 58.7036 43.5118C59.1942 43.7786 59.6848 44.2676 60.0862 44.7565V35.0211H64.8138V66.6723ZM60.0862 60.0042V49.9132C60.0862 48.8908 59.8632 48.2239 59.3726 47.735C58.9266 47.2904 58.436 47.0681 57.767 47.0681C57.0534 47.0681 56.429 47.4238 56.0276 48.0017C55.4032 48.8019 55.2694 50.4911 55.2694 54.9365C55.2694 59.3819 55.4032 61.1156 56.0276 61.9157C56.429 62.4936 57.0534 62.8048 57.767 62.8048C58.436 62.8048 58.9266 62.627 59.3726 62.1825C59.8632 61.6935 60.0862 61.0267 60.0862 60.0042ZM83.1979 56.3146H73.4751C73.4751 58.9818 73.6089 60.9822 74.1887 61.8713C74.5455 62.4047 75.1699 62.8048 76.0173 62.8048C76.7755 62.8048 77.3999 62.4936 77.8013 61.9157C78.2027 61.4268 78.3811 60.5821 78.3811 59.782H83.1087C83.0195 61.8713 82.5289 63.6494 81.1017 65.1609C79.8529 66.4945 78.2027 67.0279 76.0173 67.0279C73.9211 67.0279 72.3601 66.5834 70.9329 65.1164C68.9705 63.0715 68.7475 59.2041 68.7475 54.9365C68.7475 50.7134 68.9705 46.8014 70.9329 44.7565C72.3601 43.2896 74.0549 42.8895 75.9727 42.8895C77.9351 42.8895 79.5407 43.2896 81.0125 44.7565C82.8857 46.6236 83.1979 50.7134 83.1979 56.3146ZM78.4703 52.8472C78.4703 50.091 78.2919 48.7129 77.8013 48.0017C77.3999 47.4238 76.8647 47.0681 75.9727 47.0681C75.0807 47.0681 74.5455 47.4238 74.1441 48.0017C73.6535 48.7129 73.4751 50.091 73.4751 52.8472H78.4703ZM94.8184 66.6723C92.633 66.6723 90.8044 66.45 89.2434 65.2498C87.7716 64.1384 86.8796 62.3603 86.8796 59.5597V35.0211H91.6072V59.293C91.6072 61.3823 92.633 62.4492 94.8184 62.4492V66.6723ZM111.193 66.6723H106.733V64.6719C106.332 65.2498 105.841 65.8721 105.306 66.2278C104.593 66.7168 103.834 67.0279 102.63 67.0279C100.668 67.0279 99.4189 66.45 98.2147 65.072C97.2781 63.9606 96.7875 62.1825 96.7875 59.8264C96.7875 57.6926 97.5457 55.8256 98.9729 54.5809C100.133 53.5584 101.649 52.9805 104.37 52.9805H106.466V49.7354C106.466 48.0017 105.663 47.0237 104.191 47.0237C103.478 47.0237 102.987 47.2904 102.63 47.6905C102.14 48.2239 101.917 48.8908 101.917 49.8687H97.1889C97.1889 48.0017 97.7241 46.268 99.1959 44.801C100.311 43.6897 102.229 42.8895 104.147 42.8895C106.109 42.8895 107.938 43.3785 109.142 44.6232C110.391 45.8679 111.193 47.6016 111.193 50.1355V66.6723ZM106.466 59.782V56.3146H104.905C103.879 56.3146 103.121 56.4035 102.452 57.0258C101.872 57.5593 101.515 58.7151 101.515 59.6486C101.515 61.7379 102.363 62.8937 103.968 62.8937C105.395 62.8937 106.466 61.6935 106.466 59.782ZM120.444 66.6723H115.717V43.8675H120.444V66.6723ZM120.667 40.2667H115.449V35.0656H120.667V40.2667ZM138.461 59.9153C138.461 62.2269 137.569 63.9162 136.364 65.1164C134.937 66.5389 133.242 67.0279 131.235 67.0279C129.228 67.0279 127.266 66.3611 126.062 65.1164C124.679 63.6939 123.966 62.0491 123.966 59.8264H128.649C128.649 60.7599 128.916 61.5157 129.451 62.0491C129.897 62.5381 130.611 62.7604 131.235 62.7604C131.994 62.7604 132.529 62.5826 133.064 62.0936C133.51 61.6935 133.733 60.9822 133.733 60.2265C133.733 59.5597 133.599 59.0262 133.242 58.4928C132.886 57.9593 132.261 57.5148 131.414 57.1592L128.292 55.7811C126.686 55.0698 125.527 54.1363 124.858 53.0694C124.322 52.2248 124.099 51.1579 124.099 49.8687C124.099 47.6016 124.902 46.1346 126.151 44.8455C127.444 43.5563 129.273 42.8895 131.235 42.8895C133.198 42.8895 134.982 43.5118 136.186 44.6676C137.435 45.8679 138.193 47.5127 138.193 49.8687H133.555C133.555 48.8463 133.332 48.2239 132.886 47.735C132.44 47.246 131.86 47.0237 131.235 47.0237C130.522 47.0237 129.897 47.2904 129.496 47.6905C129.05 48.135 128.827 48.7574 128.827 49.4687C128.827 50.0466 128.916 50.4466 129.184 50.8467C129.496 51.3357 130.12 51.8247 130.923 52.1803L134.045 53.514C135.651 54.2252 136.721 54.9809 137.479 56.0923C138.104 56.9814 138.461 58.315 138.461 59.9153ZM155.803 56.3146H146.081C146.081 58.9818 146.214 60.9822 146.794 61.8713C147.151 62.4047 147.775 62.8048 148.623 62.8048C149.381 62.8048 150.005 62.4936 150.407 61.9157C150.808 61.4268 150.987 60.5821 150.987 59.782H155.714C155.625 61.8713 155.134 63.6494 153.707 65.1609C152.458 66.4945 150.808 67.0279 148.623 67.0279C146.527 67.0279 144.966 66.5834 143.538 65.1164C141.576 63.0715 141.353 59.2041 141.353 54.9365C141.353 50.7134 141.576 46.8014 143.538 44.7565C144.966 43.2896 146.66 42.8895 148.578 42.8895C150.541 42.8895 152.146 43.2896 153.618 44.7565C155.491 46.6236 155.803 50.7134 155.803 56.3146ZM151.076 52.8472C151.076 50.091 150.897 48.7129 150.407 48.0017C150.005 47.4238 149.47 47.0681 148.578 47.0681C147.686 47.0681 147.151 47.4238 146.75 48.0017C146.259 48.7129 146.081 50.091 146.081 52.8472H151.076ZM173 59.9153C173 62.2269 172.108 63.9162 170.904 65.1164C169.477 66.5389 167.782 67.0279 165.775 67.0279C163.768 67.0279 161.805 66.3611 160.601 65.1164C159.219 63.6939 158.505 62.0491 158.505 59.8264H163.188C163.188 60.7599 163.456 61.5157 163.991 62.0491C164.437 62.5381 165.15 62.7604 165.775 62.7604C166.533 62.7604 167.068 62.5826 167.603 62.0936C168.049 61.6935 168.272 60.9822 168.272 60.2265C168.272 59.5597 168.139 59.0262 167.782 58.4928C167.425 57.9593 166.801 57.5148 165.953 57.1592L162.831 55.7811C161.226 55.0698 160.066 54.1363 159.397 53.0694C158.862 52.2248 158.639 51.1579 158.639 49.8687C158.639 47.6016 159.442 46.1346 160.69 44.8455C161.984 43.5563 163.812 42.8895 165.775 42.8895C167.737 42.8895 169.521 43.5118 170.725 44.6676C171.974 45.8679 172.732 47.5127 172.732 49.8687H168.094C168.094 48.8463 167.871 48.2239 167.425 47.735C166.979 47.246 166.399 47.0237 165.775 47.0237C165.061 47.0237 164.437 47.2904 164.035 47.6905C163.589 48.135 163.366 48.7574 163.366 49.4687C163.366 50.0466 163.456 50.4466 163.723 50.8467C164.035 51.3357 164.66 51.8247 165.463 52.1803L168.585 53.514C170.19 54.2252 171.261 54.9809 172.019 56.0923C172.643 56.9814 173 58.315 173 59.9153Z" fill="white"/>
</svg>
